{
	"asset":{
		"generator":"Khronos glTF Blender I/O v3.6.27",
		"version":"2.0"
	},
	"extensionsUsed":[
		"KHR_materials_emissive_strength",
		"KHR_lights_punctual"
	],
	"extensionsRequired":[
		"KHR_lights_punctual"
	],
	"extensions":{
		"KHR_lights_punctual":{
			"lights":[
				{
					"color":[
						1,
						1,
						1
					],
					"intensity":108702.82613176452,
					"type":"point",
					"name":"Lamp.001"
				},
				{
					"color":[
						1,
						1,
						1
					],
					"intensity":27175.70653294113,
					"type":"point",
					"name":"Lamp"
				}
			]
		}
	},
	"scene":0,
	"scenes":[
		{
			"extras":{
				"screencast_keys_font_size":30,
				"screencast_keys_box_hide":0,
				"screencast_keys_mouse_size":80,
				"screencast_keys_fade_time":8.0,
				"NWBusyDrawing":"",
				"NWLazySource":"Glossy BSDF",
				"NWLazyTarget":"Glossy BSDF"
			},
			"name":"Scene",
			"nodes":[
				0,
				1,
				2,
				3,
				4,
				5,
				6,
				7,
				8,
				9
			]
		}
	],
	"nodes":[
		{
			"mesh":0,
			"name":"Cylinder.002",
			"rotation":[
				0,
				0,
				-0.7071068286895752,
				0.7071068286895752
			],
			"translation":[
				38.30846405029297,
				1.3648749589920044,
				0
			]
		},
		{
			"extensions":{
				"KHR_lights_punctual":{
					"light":0
				}
			},
			"name":"Lamp.001",
			"rotation":[
				-0.28416627645492554,
				0.7269423007965088,
				0.34203392267227173,
				0.5232754945755005
			],
			"translation":[
				0.9117156267166138,
				15.964550971984863,
				8.723021507263184
			]
		},
		{
			"mesh":1,
			"name":"GroundPlane",
			"scale":[
				109.99999237060547,
				109.99999237060547,
				109.99999237060547
			],
			"translation":[
				0,
				-1.3031426668167114,
				0
			]
		},
		{
			"mesh":2,
			"name":"Plane",
			"rotation":[
				-0.3164215683937073,
				-0.07570023089647293,
				-0.030215540900826454,
				0.9451106190681458
			],
			"scale":[
				25.000001907348633,
				25,
				25
			],
			"translation":[
				8.955825805664062,
				50.987300872802734,
				-24.54595184326172
			]
		},
		{
			"mesh":3,
			"name":"Cube",
			"rotation":[
				-0.7071068286895752,
				-0.7071068286895752,
				0,
				1.1520234011186403e-07
			],
			"scale":[
				0.21659885346889496,
				0.10917003452777863,
				1.0159369707107544
			],
			"translation":[
				-7.320566177368164,
				3.42289137840271,
				4.7750986595929135e-06
			]
		},
		{
			"mesh":4,
			"name":"Torus.001",
			"rotation":[
				-0.7071068286895752,
				-0.7071068286895752,
				0,
				1.1520234011186403e-07
			],
			"translation":[
				-11.370826721191406,
				1.3500005006790161,
				5.129183591634501e-06
			]
		},
		{
			"mesh":5,
			"name":"Cylinder.001",
			"rotation":[
				-0.7071068286895752,
				-0.7071068286895752,
				0,
				1.1520234011186403e-07
			],
			"scale":[
				2.5,
				1,
				2.5
			],
			"translation":[
				-10.42586898803711,
				1.3500005006790161,
				5.046572823630413e-06
			]
		},
		{
			"mesh":6,
			"name":"Cylinder",
			"rotation":[
				-0.7071068286895752,
				-0.7071068286895752,
				0,
				1.1520234011186403e-07
			],
			"scale":[
				2,
				1,
				2
			],
			"translation":[
				-8.89315414428711,
				1.3500003814697266,
				4.91257833346026e-06
			]
		},
		{
			"extensions":{
				"KHR_lights_punctual":{
					"light":1
				}
			},
			"name":"Lamp",
			"rotation":[
				-0.28416627645492554,
				0.7269423007965088,
				0.34203392267227173,
				0.5232754945755005
			],
			"translation":[
				-8.829017639160156,
				13.021293640136719,
				4.1052703857421875
			]
		},
		{
			"camera":0,
			"name":"Camera",
			"rotation":[
				-0.1944669485092163,
				0.18220384418964386,
				0.03679009899497032,
				0.9631359577178955
			],
			"translation":[
				18.94493865966797,
				18.372438430786133,
				34.004150390625
			]
		}
	],
	"cameras":[
		{
			"name":"Camera",
			"perspective":{
				"aspectRatio":1.7777777777777777,
				"yfov":0.5033799372418416,
				"zfar":100,
				"znear":0.10000000149011612
			},
			"type":"perspective"
		}
	],
	"materials":[
		{
			"doubleSided":true,
			"emissiveFactor":[
				0.19030373704698053,
				0.2976425098500392,
				1
			],
			"extensions":{
				"KHR_materials_emissive_strength":{
					"emissiveStrength":4.000000357627869
				}
			},
			"name":"Saber",
			"pbrMetallicRoughness":{
				"baseColorFactor":[
					0,
					0,
					0,
					1
				]
			}
		},
		{
			"doubleSided":true,
			"name":"Material",
			"pbrMetallicRoughness":{}
		},
		{
			"doubleSided":true,
			"emissiveFactor":[
				1,
				1,
				1
			],
			"extensions":{
				"KHR_materials_emissive_strength":{
					"emissiveStrength":1.600000023841858
				}
			},
			"name":"Light1",
			"pbrMetallicRoughness":{
				"baseColorFactor":[
					0,
					0,
					0,
					1
				]
			}
		},
		{
			"doubleSided":true,
			"name":"Copper",
			"pbrMetallicRoughness":{}
		},
		{
			"doubleSided":true,
			"name":"BottomAlu",
			"pbrMetallicRoughness":{}
		},
		{
			"doubleSided":true,
			"name":"SaberMetal",
			"pbrMetallicRoughness":{}
		},
		{
			"doubleSided":true,
			"name":"Black",
			"pbrMetallicRoughness":{}
		}
	],
	"meshes":[
		{
			"name":"Cylinder",
			"primitives":[
				{
					"attributes":{
						"POSITION":0,
						"NORMAL":1
					},
					"indices":2,
					"material":0
				}
			]
		},
		{
			"name":"Plane.001",
			"primitives":[
				{
					"attributes":{
						"POSITION":3,
						"NORMAL":4
					},
					"indices":5,
					"material":1
				}
			]
		},
		{
			"name":"Plane",
			"primitives":[
				{
					"attributes":{
						"POSITION":6,
						"NORMAL":7
					},
					"indices":5,
					"material":2
				}
			]
		},
		{
			"name":"Cube",
			"primitives":[
				{
					"attributes":{
						"POSITION":8,
						"NORMAL":9
					},
					"indices":10,
					"material":3
				}
			]
		},
		{
			"name":"Torus.001",
			"primitives":[
				{
					"attributes":{
						"POSITION":11,
						"NORMAL":12
					},
					"indices":13
				}
			]
		},
		{
			"name":"Cylinder.002",
			"primitives":[
				{
					"attributes":{
						"POSITION":14,
						"NORMAL":15
					},
					"indices":16,
					"material":4
				}
			]
		},
		{
			"name":"Cylinder.001",
			"primitives":[
				{
					"attributes":{
						"POSITION":17,
						"NORMAL":18,
						"TEXCOORD_0":19,
						"TANGENT":20
					},
					"indices":21,
					"material":5
				},
				{
					"attributes":{
						"POSITION":22,
						"NORMAL":23,
						"TEXCOORD_0":24,
						"TANGENT":25
					},
					"indices":26,
					"material":6
				},
				{
					"attributes":{
						"POSITION":27,
						"NORMAL":28,
						"TEXCOORD_0":29,
						"TANGENT":30
					},
					"indices":31,
					"material":3
				}
			]
		}
	],
	"accessors":[
		{
			"bufferView":0,
			"componentType":5126,
			"count":64,
			"max":[
				0.5,
				30,
				0.5
			],
			"min":[
				-0.5,
				-30,
				-0.5
			],
			"type":"VEC3"
		},
		{
			"bufferView":1,
			"componentType":5126,
			"count":64,
			"type":"VEC3"
		},
		{
			"bufferView":2,
			"componentType":5123,
			"count":372,
			"type":"SCALAR"
		},
		{
			"bufferView":3,
			"componentType":5126,
			"count":4,
			"max":[
				1,
				0,
				1
			],
			"min":[
				-1,
				0,
				-1
			],
			"type":"VEC3"
		},
		{
			"bufferView":4,
			"componentType":5126,
			"count":4,
			"type":"VEC3"
		},
		{
			"bufferView":5,
			"componentType":5123,
			"count":6,
			"type":"SCALAR"
		},
		{
			"bufferView":6,
			"componentType":5126,
			"count":4,
			"max":[
				1,
				0,
				1
			],
			"min":[
				-1,
				0,
				-1
			],
			"type":"VEC3"
		},
		{
			"bufferView":7,
			"componentType":5126,
			"count":4,
			"type":"VEC3"
		},
		{
			"bufferView":8,
			"componentType":5126,
			"count":320,
			"max":[
				1.6215096712112427,
				61.80000686645508,
				1
			],
			"min":[
				-1,
				-1,
				-1
			],
			"type":"VEC3"
		},
		{
			"bufferView":9,
			"componentType":5126,
			"count":320,
			"type":"VEC3"
		},
		{
			"bufferView":10,
			"componentType":5123,
			"count":1680,
			"type":"SCALAR"
		},
		{
			"bufferView":11,
			"componentType":5126,
			"count":608,
			"max":[
				0.05100376904010773,
				2.1195333003997803,
				-2.6264610290527344
			],
			"min":[
				-0.05100388824939728,
				-0.532660722732544,
				-4.234945297241211
			],
			"type":"VEC3"
		},
		{
			"bufferView":12,
			"componentType":5126,
			"count":608,
			"type":"VEC3"
		},
		{
			"bufferView":13,
			"componentType":5123,
			"count":912,
			"type":"SCALAR"
		},
		{
			"bufferView":14,
			"componentType":5126,
			"count":6224,
			"max":[
				1.1525888442993164,
				1.378294825553894,
				1.1863702535629272
			],
			"min":[
				-1.152588963508606,
				-1.378294825553894,
				-1.1863702535629272
			],
			"type":"VEC3"
		},
		{
			"bufferView":15,
			"componentType":5126,
			"count":6224,
			"type":"VEC3"
		},
		{
			"bufferView":16,
			"componentType":5123,
			"count":37344,
			"type":"SCALAR"
		},
		{
			"bufferView":17,
			"componentType":5126,
			"count":82509,
			"max":[
				1.3399871587753296,
				22.039573669433594,
				1.1061608791351318
			],
			"min":[
				-1.1061598062515259,
				-0.9995783567428589,
				-1.1061608791351318
			],
			"type":"VEC3"
		},
		{
			"bufferView":18,
			"componentType":5126,
			"count":82509,
			"type":"VEC3"
		},
		{
			"bufferView":19,
			"componentType":5126,
			"count":82509,
			"type":"VEC2"
		},
		{
			"bufferView":20,
			"componentType":5126,
			"count":82509,
			"type":"VEC4"
		},
		{
			"bufferView":21,
			"componentType":5125,
			"count":344736,
			"type":"SCALAR"
		},
		{
			"bufferView":22,
			"componentType":5126,
			"count":15091,
			"max":[
				1.0078341960906982,
				19.277647018432617,
				1.0078333616256714
			],
			"min":[
				-1.0078330039978027,
				9.405714988708496,
				-1.0078332424163818
			],
			"type":"VEC3"
		},
		{
			"bufferView":23,
			"componentType":5126,
			"count":15091,
			"type":"VEC3"
		},
		{
			"bufferView":24,
			"componentType":5126,
			"count":15091,
			"type":"VEC2"
		},
		{
			"bufferView":25,
			"componentType":5126,
			"count":15091,
			"type":"VEC4"
		},
		{
			"bufferView":26,
			"componentType":5123,
			"count":61440,
			"type":"SCALAR"
		},
		{
			"bufferView":27,
			"componentType":5126,
			"count":5100,
			"max":[
				0.87938392162323,
				17.84967613220215,
				0.8793830871582031
			],
			"min":[
				-0.879382312297821,
				15.440165519714355,
				-0.8793830275535583
			],
			"type":"VEC3"
		},
		{
			"bufferView":28,
			"componentType":5126,
			"count":5100,
			"type":"VEC3"
		},
		{
			"bufferView":29,
			"componentType":5126,
			"count":5100,
			"type":"VEC2"
		},
		{
			"bufferView":30,
			"componentType":5126,
			"count":5100,
			"type":"VEC4"
		},
		{
			"bufferView":31,
			"componentType":5123,
			"count":21408,
			"type":"SCALAR"
		}
	],
	"bufferViews":[
		{
			"buffer":0,
			"byteLength":768,
			"byteOffset":0,
			"target":34962
		},
		{
			"buffer":0,
			"byteLength":768,
			"byteOffset":768,
			"target":34962
		},
		{
			"buffer":0,
			"byteLength":744,
			"byteOffset":1536,
			"target":34963
		},
		{
			"buffer":0,
			"byteLength":48,
			"byteOffset":2280,
			"target":34962
		},
		{
			"buffer":0,
			"byteLength":48,
			"byteOffset":2328,
			"target":34962
		},
		{
			"buffer":0,
			"byteLength":12,
			"byteOffset":2376,
			"target":34963
		},
		{
			"buffer":0,
			"byteLength":48,
			"byteOffset":2388,
			"target":34962
		},
		{
			"buffer":0,
			"byteLength":48,
			"byteOffset":2436,
			"target":34962
		},
		{
			"buffer":0,
			"byteLength":3840,
			"byteOffset":2484,
			"target":34962
		},
		{
			"buffer":0,
			"byteLength":3840,
			"byteOffset":6324,
			"target":34962
		},
		{
			"buffer":0,
			"byteLength":3360,
			"byteOffset":10164,
			"target":34963
		},
		{
			"buffer":0,
			"byteLength":7296,
			"byteOffset":13524,
			"target":34962
		},
		{
			"buffer":0,
			"byteLength":7296,
			"byteOffset":20820,
			"target":34962
		},
		{
			"buffer":0,
			"byteLength":1824,
			"byteOffset":28116,
			"target":34963
		},
		{
			"buffer":0,
			"byteLength":74688,
			"byteOffset":29940,
			"target":34962
		},
		{
			"buffer":0,
			"byteLength":74688,
			"byteOffset":104628,
			"target":34962
		},
		{
			"buffer":0,
			"byteLength":74688,
			"byteOffset":179316,
			"target":34963
		},
		{
			"buffer":0,
			"byteLength":990108,
			"byteOffset":254004,
			"target":34962
		},
		{
			"buffer":0,
			"byteLength":990108,
			"byteOffset":1244112,
			"target":34962
		},
		{
			"buffer":0,
			"byteLength":660072,
			"byteOffset":2234220,
			"target":34962
		},
		{
			"buffer":0,
			"byteLength":1320144,
			"byteOffset":2894292,
			"target":34962
		},
		{
			"buffer":0,
			"byteLength":1378944,
			"byteOffset":4214436,
			"target":34963
		},
		{
			"buffer":0,
			"byteLength":181092,
			"byteOffset":5593380,
			"target":34962
		},
		{
			"buffer":0,
			"byteLength":181092,
			"byteOffset":5774472,
			"target":34962
		},
		{
			"buffer":0,
			"byteLength":120728,
			"byteOffset":5955564,
			"target":34962
		},
		{
			"buffer":0,
			"byteLength":241456,
			"byteOffset":6076292,
			"target":34962
		},
		{
			"buffer":0,
			"byteLength":122880,
			"byteOffset":6317748,
			"target":34963
		},
		{
			"buffer":0,
			"byteLength":61200,
			"byteOffset":6440628,
			"target":34962
		},
		{
			"buffer":0,
			"byteLength":61200,
			"byteOffset":6501828,
			"target":34962
		},
		{
			"buffer":0,
			"byteLength":40800,
			"byteOffset":6563028,
			"target":34962
		},
		{
			"buffer":0,
			"byteLength":81600,
			"byteOffset":6603828,
			"target":34962
		},
		{
			"buffer":0,
			"byteLength":42816,
			"byteOffset":6685428,
			"target":34963
		}
	],
	"buffers":[
		{
			"byteLength":6728244,
			"uri":"lightSaber_comp-f9ed456bc931af78069fce81830fdf74.bin"
		}
	]
}
